<svg width="260" height="99" viewBox="0 0 260 99" fill="none" xmlns="http://www.w3.org/2000/svg">
<path d="M54.5 52.7301H64.4V7.93008H54.5V52.7301ZM24.7 7.33008C24.7 7.33008 24.5 7.33008 24.3 7.33008C24.1 7.33008 23.9 7.33008 23.9 7.33008C20.1 7.33008 17.2 9.03008 15.2 13.3301C12.5 19.3301 0 52.6301 0 52.6301H10.3C10.3 52.6301 12.1 47.2301 14.4 41.0301C17.6 41.7301 21 42.1301 24.5 42.0301C28 42.0301 31.4 41.6301 34.6 40.9301C36.9 47.2301 38.9 52.6301 38.9 52.6301H49C49 52.6301 36.2 19.1301 33.5 13.2301C31.5 9.03007 28.6 7.33008 24.7 7.33008ZM24.4 33.5301C21.7 33.5301 19.4 33.2301 17.4 32.6301C19.9 25.7301 22.1 19.4301 22.4 18.6301C23.1 16.8301 23.6 16.2301 24.4 16.1301C25.2 16.1301 25.7 16.7301 26.4 18.5301C26.7 19.3301 29 25.5301 31.5 32.4301C29.4 33.2301 27.1 33.5301 24.4 33.5301ZM103.3 13.3301C101.3 9.03008 98.4 7.33008 94.6 7.33008C94.6 7.33008 94.4 7.33008 94.2 7.33008C94 7.33008 93.8 7.33008 93.8 7.33008C90 7.33008 87.1 9.03008 85.1 13.3301C82.4 19.3301 69.9 52.6301 69.9 52.6301H80.2C80.2 52.6301 82.1 47.2301 84.3 41.0301C87.5 41.7301 90.9 42.1301 94.4 42.0301C97.9 42.0301 101.3 41.6301 104.5 40.9301C106.8 47.2301 108.8 52.6301 108.8 52.6301H118.9C118.9 52.7301 106.1 19.2301 103.3 13.3301ZM94.3 33.5301C91.6 33.5301 89.4 33.2301 87.3 32.6301C89.8 25.7301 92 19.4301 92.3 18.6301C93 16.8301 93.5 16.2301 94.3 16.1301C95.1 16.1301 95.6 16.7301 96.3 18.5301C96.6 19.3301 98.9 25.5301 101.4 32.4301C99.3 33.2301 97 33.5301 94.3 33.5301Z" fill="#D31145"/>
<path d="M160.1 34.4306C160.1 35.3306 157.4 46.2306 157.4 47.1306C157.4 48.0306 157.8 48.3306 157.8 48.3306C157.8 48.3306 158.4 51.7306 154 52.8306C154 52.8306 150.1 52.7306 150.3 48.8306C150.7 45.5306 151.2 35.8306 156.4 29.9306C158 30.1306 160.1 31.9306 160.1 34.4306ZM219 30.2306C219.9 30.2306 222 28.6306 222 27.3306C222 26.7306 219.8 21.9306 216.8 21.9306C215.9 21.9306 214.7 23.0306 214.7 23.9306C214.6 25.4306 215.9 30.2306 219 30.2306ZM161.4 26.8306C162.3 26.8306 164 26.2306 164 24.9306C164 24.3306 161.6 18.6306 158.6 18.6306C157.7 18.6306 156.5 19.7306 156.5 20.6306C156.5 22.0306 156.8 26.8306 161.4 26.8306ZM170.7 0.530617C169.5 -0.869383 153.6 -2.66938 139.9 40.5306C139.8 40.8306 139.4 40.8306 139.3 40.5306C137.1 29.0306 138.1 16.0306 137.8 13.9306C137.1 8.73061 132.7 10.4306 132.7 10.4306C130.7 14.5306 132 47.9306 135.3 52.3306C137.3 53.1306 143 52.9306 144.2 51.5306C144.2 51.5306 152.1 9.33062 170.7 0.530617ZM256 31.4306C255.6 31.4306 255.4 31.9306 255.4 31.9306C250.6 40.6306 246.2 47.5306 242.5 47.8306C241.7 47.8306 241.3 47.3306 241.1 46.5306V46.6306C240.6 43.3306 243.8 35.0306 243.6 32.7306C243.5 31.8306 243.1 31.9306 242.5 31.6306C242.3 31.7306 242.1 32.0306 241.9 32.2306C241.8 32.3306 241.7 32.3306 241.5 32.3306C239.3 31.5306 236.5 30.9306 234.8 30.7306C236.5 25.9306 240.1 15.9306 240.1 15.0306C240.1 12.8306 238.5 12.0306 235.7 11.2306C231.2 19.1306 228.4 29.9306 228.2 30.7306C226.7 32.0306 224.6 30.8306 224.1 33.4306C225.2 34.6306 227.2 35.5306 227.2 36.4306C227.2 37.3306 225.7 40.9306 226.3 52.8306C227.1 53.1306 230.3 49.7306 230.4 48.6306C231.3 39.3306 233.6 36.0306 233.6 36.0306C233.6 36.0306 237.3 36.1306 239.5 35.7306C239.6 35.7306 239.6 35.8306 239.6 35.8306C239.1 36.9306 235.9 43.3306 235.9 46.4306C235.9 50.3306 237.1 52.5306 240.4 52.8306C241 52.9306 241.7 52.9306 242.5 52.8306C245.5 52.4306 249.2 50.8306 252.2 47.3306C252.4 47.1306 252.8 47.3306 252.7 47.6306C247.9 64.6306 238.8 68.8306 234.9 69.7306C235 70.9306 241.7 70.5306 246.4 66.6306C251.8 62.0306 255.8 55.0306 257.4 49.6306C257.9 47.9306 258.4 46.1306 258.8 44.2306C259.5 40.9306 259.9 37.5306 259.9 34.1306C259.8 33.5306 256.6 31.4306 256 31.4306ZM224.2 50.4306C224.1 50.4306 224.1 50.4306 224 50.4306C219 50.4306 224.9 32.8306 217.9 33.8306C216.7 34.0306 214.9 34.9306 214.3 35.2306C214.2 35.3306 214.1 35.4306 214 35.5306C213.4 36.5306 210.4 41.4306 205.3 46.8306C204.9 47.2306 204.1 47.1306 203.9 46.5306C201.3 38.3306 212.6 14.0306 212.8 13.5306C213.6 10.8306 209.9 9.53062 208.1 9.33062C204 15.1306 197.2 33.3306 197.9 47.9306C197.9 48.1306 197.8 48.3306 197.6 48.3306C196.4 48.8306 192.3 50.3306 192.8 46.9306C192.9 46.0306 194.9 40.8306 194.9 39.9306C194.9 39.3306 192.4 35.9306 190.5 35.9306C189.7 35.9306 182.7 44.8306 180.3 46.9306C179.9 47.3306 179.3 47.1306 179 46.6306C177.7 43.8306 180.8 36.0306 189.7 33.1306C189.8 33.1306 191.6 31.3306 192 30.9306C192.1 30.7306 192.2 30.4306 192.1 30.2306C192 29.8306 191.5 29.5306 191.4 29.5306C186.5 27.2306 175.5 27.5306 173.7 27.3306C175.1 21.0306 179.4 11.0306 179.5 10.0306C179.7 8.53062 178.2 7.03061 175.2 6.23061C170.3 14.9306 166.2 26.3306 166 27.2306C165.2 28.1306 164 27.7306 163.2 30.1306C163.2 31.2306 165 32.4306 165 33.4306C165 34.4306 163.3 39.6306 164 52.7306C166.4 52.8306 169 49.0306 169.2 47.9306C170.7 37.9306 172.3 33.2306 172.3 33.2306C176.1 33.2306 179.3 32.9306 182 32.6306C182.1 32.6306 182.1 32.7306 182.1 32.8306C177.4 36.8306 172.9 40.6306 173 48.1306C173 51.1306 176.2 52.8306 178.1 52.8306C181.3 52.8306 184.5 50.0306 186 48.2306C186.3 47.9306 186.8 48.0306 186.9 48.5306C187.4 51.4306 189.7 52.8306 192 52.8306C194.1 52.8306 197.2 50.8306 198.4 50.2306C198.5 50.1306 198.6 50.2306 198.7 50.3306C199.5 51.2306 201.1 52.9306 202.6 52.9306C207.2 52.9306 211.8 46.3306 214.4 42.1306C214.6 41.7306 215.2 41.8306 215.3 42.2306C216.3 46.6306 216.2 52.8306 220.7 52.8306C221.9 52.8306 223.4 52.5306 224.7 52.0306C225.4 51.7306 225.1 50.4306 224.2 50.4306Z" fill="#D31145"/>
<path d="M21.6948 89.9727L14.4614 64.3431H19.4547L24.0725 83.1773H24.3103L29.241 64.3431H33.7837L38.7269 83.1898H38.9522L43.57 64.3431H48.5633L41.3299 89.9727H36.7496L31.6187 71.9894H31.4185L26.275 89.9727H21.6948ZM51.7826 89.9727V64.3431H61.3937C63.3627 64.3431 65.0146 64.6851 66.3494 65.3692C67.6927 66.0534 68.7063 67.0128 69.3905 68.2476C70.0829 69.474 70.4292 70.9048 70.4292 72.54C70.4292 74.1836 70.0788 75.6102 69.3779 76.82C68.6855 78.0214 67.6635 78.9516 66.3119 79.6107C64.9603 80.2614 63.3001 80.5868 61.3312 80.5868H54.4857V76.7324H60.7054C61.8568 76.7324 62.7995 76.5738 63.5337 76.2568C64.2679 75.9314 64.8102 75.4601 65.1606 74.8427C65.5193 74.217 65.6987 73.4494 65.6987 72.54C65.6987 71.6306 65.5193 70.8547 65.1606 70.2123C64.8018 69.5616 64.2554 69.0693 63.5212 68.7356C62.787 68.3936 61.8401 68.2225 60.6804 68.2225H56.4255V89.9727H51.7826ZM65.0229 78.3592L71.3677 89.9727H66.1868L59.9546 78.3592H65.0229ZM77.9941 89.9727H73.0384L82.0613 64.3431H87.793L96.8284 89.9727H91.8727L85.0273 69.5991H84.827L77.9941 89.9727ZM78.1568 79.9236H91.6724V83.6529H78.1568V79.9236ZM100.204 89.9727V64.3431H109.815C111.784 64.3431 113.436 64.7101 114.771 65.4443C116.114 66.1785 117.128 67.188 117.812 68.4728C118.504 69.7493 118.851 71.201 118.851 72.8279C118.851 74.4714 118.504 75.9314 117.812 77.2079C117.12 78.4844 116.098 79.4897 114.746 80.2239C113.394 80.9497 111.73 81.3127 109.753 81.3127H103.383V77.4957H109.127C110.278 77.4957 111.221 77.2955 111.955 76.8951C112.689 76.4946 113.232 75.944 113.582 75.2431C113.941 74.5423 114.12 73.7372 114.12 72.8279C114.12 71.9185 113.941 71.1175 113.582 70.4251C113.232 69.7326 112.685 69.1945 111.943 68.8107C111.209 68.4186 110.262 68.2225 109.102 68.2225H104.847V89.9727H100.204ZM122.883 89.9727V64.3431H132.495C134.464 64.3431 136.115 64.7101 137.45 65.4443C138.794 66.1785 139.807 67.188 140.491 68.4728C141.184 69.7493 141.53 71.201 141.53 72.8279C141.53 74.4714 141.184 75.9314 140.491 77.2079C139.799 78.4844 138.777 79.4897 137.425 80.2239C136.074 80.9497 134.409 81.3127 132.432 81.3127H126.062V77.4957H131.806C132.958 77.4957 133.9 77.2955 134.635 76.8951C135.369 76.4946 135.911 75.944 136.261 75.2431C136.62 74.5423 136.8 73.7372 136.8 72.8279C136.8 71.9185 136.62 71.1175 136.261 70.4251C135.911 69.7326 135.365 69.1945 134.622 68.8107C133.888 68.4186 132.941 68.2225 131.781 68.2225H127.526V89.9727H122.883ZM145.563 89.9727V64.3431H162.232V68.2351H150.206V75.1931H161.369V79.0851H150.206V86.0807H162.332V89.9727H145.563ZM175.654 89.9727H166.969V64.3431H175.829C178.374 64.3431 180.559 64.8561 182.387 65.8823C184.222 66.9002 185.632 68.3644 186.616 70.2749C187.601 72.1854 188.093 74.4714 188.093 77.1328C188.093 79.8026 187.597 82.0969 186.604 84.0158C185.619 85.9347 184.197 87.4072 182.337 88.4334C180.484 89.4596 178.257 89.9727 175.654 89.9727ZM171.612 85.9555H175.429C177.214 85.9555 178.703 85.6301 179.896 84.9794C181.089 84.3203 181.986 83.34 182.587 82.0385C183.188 80.7286 183.488 79.0934 183.488 77.1328C183.488 75.1722 183.188 73.5454 182.587 72.2522C181.986 70.9507 181.098 69.9787 179.921 69.3363C178.753 68.6856 177.302 68.3602 175.566 68.3602H171.612V85.9555Z" fill="#D31145"/>
</svg>
